<svg xmlns="http://www.w3.org/2000/svg" xmlns:xlink="http://www.w3.org/1999/xlink" viewBox="0 0 19 19" width="64" height="64">
  <g fill="#39e090">
  <path d="M7.385.43a.81.81 0 0 0-1.416 0l-5.292 9.6c-.246.493.123 1.047.677 1.047h3.57v3.63c0 .37.307.678.676.678h2.092c.37 0 .677-.308.677-.677v-3.631h-.984a.8.8 0 0 1-.8-.677c0-.123 0-.246.061-.37L9.6 4.676 7.385.43z" class="sc-fKFxtB kuwPmt"></path><path d="M7.385.43a.81.81 0 0 0-1.416 0l-5.292 9.6c-.246.493.123 1.047.677 1.047h3.57v3.63c0 .37.307.678.676.678h2.092c.37 0 .677-.308.677-.677v-3.631h-.984a.8.8 0 0 1-.8-.677c0-.123 0-.246.061-.37L9.6 4.676 7.385.43z"></path>
  </g>
  <g fill="#28bf7b">
  <path d="M12.062.43a.81.81 0 0 1 1.415 0l5.292 9.6c.246.493-.123 1.047-.677 1.047h-3.507v3.63c0 .37-.308.678-.678.678h-2.215a.683.683 0 0 1-.677-.677v-3.631H12a.8.8 0 0 0 .8-.677c0-.123 0-.246-.062-.37L9.785 4.677 12.062.43z"></path>
  </g>
</svg>